<svg xmlns="http://www.w3.org/2000/svg" width="860" height="860" viewBox="0 0 860 860">
<rect width="100%" height="100%" fill="white"/>
<g fill="none" stroke="#111" stroke-width="2.8" stroke-linecap="round" stroke-linejoin="round" font-family="Arial, 'Liberation Sans', 'DejaVu Sans', sans-serif">
<line x1="110.0" y1="750.0" x2="110.0" y2="146.2" stroke="#cfcfcf" stroke-width="1.2"/>
<line x1="171.0" y1="750.0" x2="171.0" y2="146.2" stroke="#cfcfcf" stroke-width="1.2"/>
<line x1="231.9" y1="750.0" x2="231.9" y2="146.2" stroke="#cfcfcf" stroke-width="1.2"/>
<line x1="292.9" y1="750.0" x2="292.9" y2="146.2" stroke="#cfcfcf" stroke-width="1.2"/>
<line x1="353.8" y1="750.0" x2="353.8" y2="146.2" stroke="#cfcfcf" stroke-width="1.2"/>
<line x1="414.8" y1="750.0" x2="414.8" y2="146.2" stroke="#cfcfcf" stroke-width="1.2"/>
<line x1="475.7" y1="750.0" x2="475.7" y2="146.2" stroke="#cfcfcf" stroke-width="1.2"/>
<line x1="536.7" y1="750.0" x2="536.7" y2="146.2" stroke="#cfcfcf" stroke-width="1.2"/>
<line x1="597.6" y1="750.0" x2="597.6" y2="146.2" stroke="#cfcfcf" stroke-width="1.2"/>
<line x1="658.6" y1="750.0" x2="658.6" y2="146.2" stroke="#cfcfcf" stroke-width="1.2"/>
<line x1="719.5" y1="750.0" x2="719.5" y2="146.2" stroke="#cfcfcf" stroke-width="1.2"/>
<line x1="110.0" y1="750.0" x2="719.5" y2="750.0" stroke="#cfcfcf" stroke-width="1.2"/>
<line x1="110.0" y1="689.6" x2="719.5" y2="689.6" stroke="#cfcfcf" stroke-width="1.2"/>
<line x1="110.0" y1="629.2" x2="719.5" y2="629.2" stroke="#cfcfcf" stroke-width="1.2"/>
<line x1="110.0" y1="568.9" x2="719.5" y2="568.9" stroke="#cfcfcf" stroke-width="1.2"/>
<line x1="110.0" y1="508.5" x2="719.5" y2="508.5" stroke="#cfcfcf" stroke-width="1.2"/>
<line x1="110.0" y1="448.1" x2="719.5" y2="448.1" stroke="#cfcfcf" stroke-width="1.2"/>
<line x1="110.0" y1="387.7" x2="719.5" y2="387.7" stroke="#cfcfcf" stroke-width="1.2"/>
<line x1="110.0" y1="327.4" x2="719.5" y2="327.4" stroke="#cfcfcf" stroke-width="1.2"/>
<line x1="110.0" y1="267.0" x2="719.5" y2="267.0" stroke="#cfcfcf" stroke-width="1.2"/>
<line x1="110.0" y1="206.6" x2="719.5" y2="206.6" stroke="#cfcfcf" stroke-width="1.2"/>
<line x1="110.0" y1="146.2" x2="719.5" y2="146.2" stroke="#cfcfcf" stroke-width="1.2"/>
<line x1="110.0" y1="750.0" x2="750.0" y2="750.0" stroke-width="2"/>
<line x1="110.0" y1="750.0" x2="110.0" y2="110.0" stroke-width="2"/>
<polyline points="738.0,756.0 750.0,750.0 738.0,744.0" fill="none" stroke-width="2"/>
<polyline points="116.0,122.0 110.0,110.0 104.0,122.0" fill="none" stroke-width="2"/>
<line x1="110.0" y1="745.0" x2="110.0" y2="755.0" stroke-width="1.6"/>
<line x1="171.0" y1="745.0" x2="171.0" y2="755.0" stroke-width="1.6"/>
<line x1="231.9" y1="745.0" x2="231.9" y2="755.0" stroke-width="1.6"/>
<line x1="292.9" y1="745.0" x2="292.9" y2="755.0" stroke-width="1.6"/>
<line x1="353.8" y1="745.0" x2="353.8" y2="755.0" stroke-width="1.6"/>
<line x1="414.8" y1="745.0" x2="414.8" y2="755.0" stroke-width="1.6"/>
<line x1="475.7" y1="745.0" x2="475.7" y2="755.0" stroke-width="1.6"/>
<line x1="536.7" y1="745.0" x2="536.7" y2="755.0" stroke-width="1.6"/>
<line x1="597.6" y1="745.0" x2="597.6" y2="755.0" stroke-width="1.6"/>
<line x1="658.6" y1="745.0" x2="658.6" y2="755.0" stroke-width="1.6"/>
<line x1="719.5" y1="745.0" x2="719.5" y2="755.0" stroke-width="1.6"/>
<line x1="105.0" y1="750.0" x2="115.0" y2="750.0" stroke-width="1.6"/>
<line x1="105.0" y1="689.6" x2="115.0" y2="689.6" stroke-width="1.6"/>
<line x1="105.0" y1="629.2" x2="115.0" y2="629.2" stroke-width="1.6"/>
<line x1="105.0" y1="568.9" x2="115.0" y2="568.9" stroke-width="1.6"/>
<line x1="105.0" y1="508.5" x2="115.0" y2="508.5" stroke-width="1.6"/>
<line x1="105.0" y1="448.1" x2="115.0" y2="448.1" stroke-width="1.6"/>
<line x1="105.0" y1="387.7" x2="115.0" y2="387.7" stroke-width="1.6"/>
<line x1="105.0" y1="327.4" x2="115.0" y2="327.4" stroke-width="1.6"/>
<line x1="105.0" y1="267.0" x2="115.0" y2="267.0" stroke-width="1.6"/>
<line x1="105.0" y1="206.6" x2="115.0" y2="206.6" stroke-width="1.6"/>
<line x1="105.0" y1="146.2" x2="115.0" y2="146.2" stroke-width="1.6"/>
<text x="171.0" y="771.0" font-size="26" font-style="normal" font-weight="normal" text-anchor="middle" dominant-baseline="central" fill="white" stroke="white" stroke-width="6" stroke-linejoin="round">1</text><text x="171.0" y="771.0" font-size="26" font-style="normal" font-weight="normal" text-anchor="middle" dominant-baseline="central" fill="#111" stroke="none">1</text>
<text x="231.9" y="771.0" font-size="26" font-style="normal" font-weight="normal" text-anchor="middle" dominant-baseline="central" fill="white" stroke="white" stroke-width="6" stroke-linejoin="round">2</text><text x="231.9" y="771.0" font-size="26" font-style="normal" font-weight="normal" text-anchor="middle" dominant-baseline="central" fill="#111" stroke="none">2</text>
<text x="292.9" y="771.0" font-size="26" font-style="normal" font-weight="normal" text-anchor="middle" dominant-baseline="central" fill="white" stroke="white" stroke-width="6" stroke-linejoin="round">3</text><text x="292.9" y="771.0" font-size="26" font-style="normal" font-weight="normal" text-anchor="middle" dominant-baseline="central" fill="#111" stroke="none">3</text>
<text x="353.8" y="771.0" font-size="26" font-style="normal" font-weight="normal" text-anchor="middle" dominant-baseline="central" fill="white" stroke="white" stroke-width="6" stroke-linejoin="round">4</text><text x="353.8" y="771.0" font-size="26" font-style="normal" font-weight="normal" text-anchor="middle" dominant-baseline="central" fill="#111" stroke="none">4</text>
<text x="414.8" y="771.0" font-size="26" font-style="normal" font-weight="normal" text-anchor="middle" dominant-baseline="central" fill="white" stroke="white" stroke-width="6" stroke-linejoin="round">5</text><text x="414.8" y="771.0" font-size="26" font-style="normal" font-weight="normal" text-anchor="middle" dominant-baseline="central" fill="#111" stroke="none">5</text>
<text x="475.7" y="771.0" font-size="26" font-style="normal" font-weight="normal" text-anchor="middle" dominant-baseline="central" fill="white" stroke="white" stroke-width="6" stroke-linejoin="round">6</text><text x="475.7" y="771.0" font-size="26" font-style="normal" font-weight="normal" text-anchor="middle" dominant-baseline="central" fill="#111" stroke="none">6</text>
<text x="536.7" y="771.0" font-size="26" font-style="normal" font-weight="normal" text-anchor="middle" dominant-baseline="central" fill="white" stroke="white" stroke-width="6" stroke-linejoin="round">7</text><text x="536.7" y="771.0" font-size="26" font-style="normal" font-weight="normal" text-anchor="middle" dominant-baseline="central" fill="#111" stroke="none">7</text>
<text x="597.6" y="771.0" font-size="26" font-style="normal" font-weight="normal" text-anchor="middle" dominant-baseline="central" fill="white" stroke="white" stroke-width="6" stroke-linejoin="round">8</text><text x="597.6" y="771.0" font-size="26" font-style="normal" font-weight="normal" text-anchor="middle" dominant-baseline="central" fill="#111" stroke="none">8</text>
<text x="658.6" y="771.0" font-size="26" font-style="normal" font-weight="normal" text-anchor="middle" dominant-baseline="central" fill="white" stroke="white" stroke-width="6" stroke-linejoin="round">9</text><text x="658.6" y="771.0" font-size="26" font-style="normal" font-weight="normal" text-anchor="middle" dominant-baseline="central" fill="#111" stroke="none">9</text>
<text x="719.5" y="771.0" font-size="26" font-style="normal" font-weight="normal" text-anchor="middle" dominant-baseline="central" fill="white" stroke="white" stroke-width="6" stroke-linejoin="round">10</text><text x="719.5" y="771.0" font-size="26" font-style="normal" font-weight="normal" text-anchor="middle" dominant-baseline="central" fill="#111" stroke="none">10</text>
<text x="98.0" y="629.2" font-size="26" font-style="normal" font-weight="normal" text-anchor="end" dominant-baseline="central" fill="white" stroke="white" stroke-width="6" stroke-linejoin="round">60</text><text x="98.0" y="629.2" font-size="26" font-style="normal" font-weight="normal" text-anchor="end" dominant-baseline="central" fill="#111" stroke="none">60</text>
<text x="98.0" y="508.5" font-size="26" font-style="normal" font-weight="normal" text-anchor="end" dominant-baseline="central" fill="white" stroke="white" stroke-width="6" stroke-linejoin="round">70</text><text x="98.0" y="508.5" font-size="26" font-style="normal" font-weight="normal" text-anchor="end" dominant-baseline="central" fill="#111" stroke="none">70</text>
<text x="98.0" y="387.7" font-size="26" font-style="normal" font-weight="normal" text-anchor="end" dominant-baseline="central" fill="white" stroke="white" stroke-width="6" stroke-linejoin="round">80</text><text x="98.0" y="387.7" font-size="26" font-style="normal" font-weight="normal" text-anchor="end" dominant-baseline="central" fill="#111" stroke="none">80</text>
<text x="98.0" y="267.0" font-size="26" font-style="normal" font-weight="normal" text-anchor="end" dominant-baseline="central" fill="white" stroke="white" stroke-width="6" stroke-linejoin="round">90</text><text x="98.0" y="267.0" font-size="26" font-style="normal" font-weight="normal" text-anchor="end" dominant-baseline="central" fill="#111" stroke="none">90</text>
<text x="98.0" y="146.2" font-size="26" font-style="normal" font-weight="normal" text-anchor="end" dominant-baseline="central" fill="white" stroke="white" stroke-width="6" stroke-linejoin="round">100</text><text x="98.0" y="146.2" font-size="26" font-style="normal" font-weight="normal" text-anchor="end" dominant-baseline="central" fill="#111" stroke="none">100</text>
<line x1="110.0" y1="689.6" x2="719.5" y2="206.6"/>
<circle cx="171.0" cy="605.1" r="7" fill="#111"/>
<circle cx="231.9" cy="629.2" r="7" fill="#111"/>
<circle cx="231.9" cy="556.8" r="7" fill="#111"/>
<circle cx="292.9" cy="508.5" r="7" fill="#111"/>
<circle cx="353.8" cy="532.6" r="7" fill="#111"/>
<circle cx="353.8" cy="460.2" r="7" fill="#111"/>
<circle cx="414.8" cy="411.9" r="7" fill="#111"/>
<circle cx="475.7" cy="436.0" r="7" fill="#111"/>
<circle cx="475.7" cy="363.6" r="7" fill="#111"/>
<circle cx="536.7" cy="508.5" r="7" fill="#111"/>
<circle cx="597.6" cy="267.0" r="7" fill="#111"/>
<circle cx="658.6" cy="291.1" r="7" fill="#111"/>
<circle cx="658.6" cy="218.7" r="7" fill="#111"/>
<circle cx="719.5" cy="242.8" r="7" fill="#111"/>
<text x="98.0" y="750.0" font-size="26" font-style="normal" font-weight="normal" text-anchor="end" dominant-baseline="central" fill="white" stroke="white" stroke-width="6" stroke-linejoin="round">50</text><text x="98.0" y="750.0" font-size="26" font-style="normal" font-weight="normal" text-anchor="end" dominant-baseline="central" fill="#111" stroke="none">50</text>
<text x="110.0" y="771.0" font-size="26" font-style="normal" font-weight="normal" text-anchor="middle" dominant-baseline="central" fill="white" stroke="white" stroke-width="6" stroke-linejoin="round">0</text><text x="110.0" y="771.0" font-size="26" font-style="normal" font-weight="normal" text-anchor="middle" dominant-baseline="central" fill="#111" stroke="none">0</text>
<text x="414.8" y="818.0" font-size="30" font-style="normal" font-weight="normal" text-anchor="middle" dominant-baseline="central" fill="#111" stroke="none">Hours studied</text>
<text x="30.0" y="448.1" font-size="30" font-style="normal" font-weight="normal" text-anchor="middle" dominant-baseline="central" transform="rotate(-90 30.0 448.1)" fill="#111" stroke="none">Test score (points)</text>
</g></svg>